<?xml version="1.0" standalone="no"?><!DOCTYPE svg PUBLIC "-//W3C//DTD SVG 1.1//EN" "http://www.w3.org/Graphics/SVG/1.1/DTD/svg11.dtd"><svg xmlns:xlink="http://www.w3.org/1999/xlink" version="1.1" style="font-family:open sans;font-size:12px;" xmlns="http://www.w3.org/2000/svg" width="1040" height="410"><desc>Created with Highcharts 4.1.5</desc><defs><clipPath id="highcharts-82"><rect x="0" y="0" width="828" height="206"></rect></clipPath></defs><rect x="0" y="0" width="1040" height="410" strokeWidth="0" fill="#FFFFFF" class=" highcharts-background"></rect><g class="highcharts-grid" ></g><g class="highcharts-grid" ></g><g class="highcharts-grid" ><path fill="none" d="M 105 337.5 L 933 337.5" stroke="#D8D8D8" stroke-width="1"  opacity="1"></path><path fill="none" d="M 105 268.5 L 933 268.5" stroke="#D8D8D8" stroke-width="1"  opacity="1"></path><path fill="none" d="M 105 200.5 L 933 200.5" stroke="#D8D8D8" stroke-width="1"  opacity="1"></path><path fill="none" d="M 105 130.5 L 933 130.5" stroke="#D8D8D8" stroke-width="1"  opacity="1"></path></g><g class="highcharts-grid" ></g><g class="highcharts-axis" ><path fill="none" d="M 187.5 337 L 187.5 347" stroke="#C0D0E0" stroke-width="1" opacity="1"></path><path fill="none" d="M 270.5 337 L 270.5 347" stroke="#C0D0E0" stroke-width="1" opacity="1"></path><path fill="none" d="M 352.5 337 L 352.5 347" stroke="#C0D0E0" stroke-width="1" opacity="1"></path><path fill="none" d="M 435.5 337 L 435.5 347" stroke="#C0D0E0" stroke-width="1" opacity="1"></path><path fill="none" d="M 518.5 337 L 518.5 347" stroke="#C0D0E0" stroke-width="1" opacity="1"></path><path fill="none" d="M 601.5 337 L 601.5 347" stroke="#C0D0E0" stroke-width="1" opacity="1"></path><path fill="none" d="M 684.5 337 L 684.5 347" stroke="#C0D0E0" stroke-width="1" opacity="1"></path><path fill="none" d="M 766.5 337 L 766.5 347" stroke="#C0D0E0" stroke-width="1" opacity="1"></path><path fill="none" d="M 849.5 337 L 849.5 347" stroke="#C0D0E0" stroke-width="1" opacity="1"></path><path fill="none" d="M 933.5 337 L 933.5 347" stroke="#C0D0E0" stroke-width="1" opacity="1"></path><path fill="none" d="M 104.5 337 L 104.5 347" stroke="#C0D0E0" stroke-width="1" opacity="1"></path><path fill="none" d="M 105 337.5 L 933 337.5" stroke="#C0D0E0" stroke-width="1"  visibility="visible"></path></g><g class="highcharts-axis" ><path fill="none" d="M 187.5 131 L 187.5 121" stroke="#C0D0E0" stroke-width="1" opacity="1"></path><path fill="none" d="M 270.5 131 L 270.5 121" stroke="#C0D0E0" stroke-width="1" opacity="1"></path><path fill="none" d="M 352.5 131 L 352.5 121" stroke="#C0D0E0" stroke-width="1" opacity="1"></path><path fill="none" d="M 435.5 131 L 435.5 121" stroke="#C0D0E0" stroke-width="1" opacity="1"></path><path fill="none" d="M 518.5 131 L 518.5 121" stroke="#C0D0E0" stroke-width="1" opacity="1"></path><path fill="none" d="M 601.5 131 L 601.5 121" stroke="#C0D0E0" stroke-width="1" opacity="1"></path><path fill="none" d="M 684.5 131 L 684.5 121" stroke="#C0D0E0" stroke-width="1" opacity="1"></path><path fill="none" d="M 766.5 131 L 766.5 121" stroke="#C0D0E0" stroke-width="1" opacity="1"></path><path fill="none" d="M 849.5 131 L 849.5 121" stroke="#C0D0E0" stroke-width="1" opacity="1"></path><path fill="none" d="M 933.5 131 L 933.5 121" stroke="#C0D0E0" stroke-width="1" opacity="1"></path><path fill="none" d="M 104.5 131 L 104.5 121" stroke="#C0D0E0" stroke-width="1" opacity="1"></path><path fill="none" d="M 105 130.5 L 933 130.5" stroke="#C0D0E0" stroke-width="1"  visibility="visible"></path></g><g class="highcharts-axis" ><text x="1016.34375"  text-anchor="middle" transform="translate(0,0) rotate(90 1016.34375 234)" class=" highcharts-yaxis-title" style="color:#000000;fill:#000000;" visibility="visible" y="234"><tspan>Computer science doctorates</tspan></text></g><g class="highcharts-axis" ><text x="23.765625"  text-anchor="middle" transform="translate(0,0) rotate(270 23.765625 234)" class=" highcharts-yaxis-title" style="color:#ba0f27;fill:#ba0f27;" visibility="visible" y="234"><tspan>Arcade revenue</tspan></text></g><g class="highcharts-series-group" ><g class="highcharts-series" visibility="visible"  transform="translate(105,131) scale(1 1)" clip-path="url(#highcharts-82)"><path fill="none" d="M 41.4 156.42266666666666 C 41.4 156.42266666666666 91.08 159.25173333333336 124.19999999999999 160.68 C 157.32 162.10826666666668 173.88 163.564 207 163.564 C 240.11999999999998 163.564 256.67999999999995 159.41653333333332 289.79999999999995 155.59866666666667 C 322.91999999999996 151.7808 339.47999999999996 151.67093333333335 372.59999999999997 144.47466666666668 C 405.71999999999997 137.2784 422.2799999999999 133.48800000000006 455.4 119.61733333333333 C 488.51999999999987 105.7466666666667 505.0799999999999 89.59626666666665 538.1999999999999 75.12133333333333 C 571.3199999999999 60.646399999999986 587.8799999999999 56.416533333333334 621 47.24266666666665 C 654.12 38.0688 670.68 29.25200000000001 703.8 29.25200000000001 C 736.9199999999998 29.25200000000001 786.5999999999999 53.42266666666666 786.5999999999999 53.42266666666666" stroke="#000000" stroke-width="2"  stroke-linejoin="round" stroke-linecap="round"></path></g><g class="highcharts-markers" visibility="visible"  transform="translate(105,131) scale(1 1)" clip-path="none"><path fill="#000000" d="M 786 49.42266666666666 C 791.328 49.42266666666666 791.328 57.42266666666666 786 57.42266666666666 C 780.672 57.42266666666666 780.672 49.42266666666666 786 49.42266666666666 Z"></path><path fill="#000000" d="M 703 25.25200000000001 C 708.328 25.25200000000001 708.328 33.25200000000001 703 33.25200000000001 C 697.672 33.25200000000001 697.672 25.25200000000001 703 25.25200000000001 Z"></path><path fill="#000000" d="M 621 43.24266666666665 C 626.328 43.24266666666665 626.328 51.24266666666665 621 51.24266666666665 C 615.672 51.24266666666665 615.672 43.24266666666665 621 43.24266666666665 Z"></path><path fill="#000000" d="M 538 71.12133333333333 C 543.328 71.12133333333333 543.328 79.12133333333333 538 79.12133333333333 C 532.672 79.12133333333333 532.672 71.12133333333333 538 71.12133333333333 Z"></path><path fill="#000000" d="M 455 115.61733333333333 C 460.328 115.61733333333333 460.328 123.61733333333333 455 123.61733333333333 C 449.672 123.61733333333333 449.672 115.61733333333333 455 115.61733333333333 Z"></path><path fill="#000000" d="M 372 140.47466666666668 C 377.328 140.47466666666668 377.328 148.47466666666668 372 148.47466666666668 C 366.672 148.47466666666668 366.672 140.47466666666668 372 140.47466666666668 Z"></path><path fill="#000000" d="M 289 151.59866666666667 C 294.328 151.59866666666667 294.328 159.59866666666667 289 159.59866666666667 C 283.672 159.59866666666667 283.672 151.59866666666667 289 151.59866666666667 Z"></path><path fill="#000000" d="M 207 159.564 C 212.328 159.564 212.328 167.564 207 167.564 C 201.672 167.564 201.672 159.564 207 159.564 Z"></path><path fill="#000000" d="M 124 156.68 C 129.328 156.68 129.328 164.68 124 164.68 C 118.672 164.68 118.672 156.68 124 156.68 Z"></path><path fill="#000000" d="M 41 152.42266666666666 C 46.328 152.42266666666666 46.328 160.42266666666666 41 160.42266666666666 C 35.672 160.42266666666666 35.672 152.42266666666666 41 152.42266666666666 Z"></path></g><g class="highcharts-series" visibility="visible"  transform="translate(105,131) scale(1 1)" clip-path="url(#highcharts-82)"><path fill="none" d="M 41.4 165.62400000000002 C 41.4 165.62400000000002 91.08 169.74400000000003 124.19999999999999 169.74400000000003 C 157.32 169.74400000000003 173.88 150.586 207 150.586 C 240.11999999999998 150.586 256.67999999999995 156.56 289.79999999999995 156.56 C 322.91999999999996 156.56 339.47999999999996 150.792 372.59999999999997 142.758 C 405.71999999999997 134.72400000000002 422.2799999999999 128.5028 455.4 116.38999999999999 C 488.51999999999987 104.27720000000002 505.0799999999999 91.21679999999999 538.1999999999999 82.194 C 571.3199999999999 73.1712 587.8799999999999 79.59840000000003 621 71.27600000000001 C 654.12 62.95360000000003 670.68 40.58200000000002 703.8 40.58200000000002 C 736.9199999999998 40.58200000000002 786.5999999999999 54.79599999999999 786.5999999999999 54.79599999999999" stroke="#ba0f27" stroke-width="2"  stroke-linejoin="round" stroke-linecap="round"></path></g><g class="highcharts-markers" visibility="visible"  transform="translate(105,131) scale(1 1)" clip-path="none"><path fill="#ba0f27" d="M 786 50.79599999999999 L 790 54.79599999999999 786 58.79599999999999 782 54.79599999999999 Z"></path><path fill="#ba0f27" d="M 703 36.58200000000002 L 707 40.58200000000002 703 44.58200000000002 699 40.58200000000002 Z"></path><path fill="#ba0f27" d="M 621 67.27600000000001 L 625 71.27600000000001 621 75.27600000000001 617 71.27600000000001 Z"></path><path fill="#ba0f27" d="M 538 78.194 L 542 82.194 538 86.194 534 82.194 Z"></path><path fill="#ba0f27" d="M 455 112.38999999999999 L 459 116.38999999999999 455 120.38999999999999 451 116.38999999999999 Z"></path><path fill="#ba0f27" d="M 372 138.758 L 376 142.758 372 146.758 368 142.758 Z"></path><path fill="#ba0f27" d="M 289 152.56 L 293 156.56 289 160.56 285 156.56 Z"></path><path fill="#ba0f27" d="M 207 146.586 L 211 150.586 207 154.586 203 150.586 Z"></path><path fill="#ba0f27" d="M 124 165.74400000000003 L 128 169.74400000000003 124 173.74400000000003 120 169.74400000000003 Z"></path><path fill="#ba0f27" d="M 41 161.62400000000002 L 45 165.62400000000002 41 169.62400000000002 37 165.62400000000002 Z"></path></g></g><text x="520" text-anchor="middle" class="highcharts-title"  style="color:#777;font-size:18px;fill:#777;width:976px;" y="24"><tspan style="fill:#ba0f27;font-size:24px;font-weight:bold;font-family: 'lora'">Total revenue generated by arcades</tspan><tspan style="font-family: 'lora'" x="520" dy="21"> correlates with </tspan><tspan style="fill:#000000;font-size:24px;font-weight:bold;font-family: 'lora'" x="520" dy="29">Computer science doctorates awarded in the US</tspan></text><g class="highcharts-legend"  transform="translate(367,370)"><g ><g><g class="highcharts-legend-item"  transform="translate(8,3)"><path fill="none" d="M 0 11 L 16 11" stroke="#000000" stroke-width="2"></path><path fill="#000000" d="M 8 7 C 13.328 7 13.328 15 8 15 C 2.6719999999999997 15 2.6719999999999997 7 8 7 Z"></path><text x="21" style="color:#333333;font-size:12px;font-weight:bold;cursor:pointer;fill:#333333;" text-anchor="start"  y="15"><tspan>Computer science doctorates</tspan></text></g><g class="highcharts-legend-item"  transform="translate(196.96875,3)"><path fill="none" d="M 0 11 L 16 11" stroke="#ba0f27" stroke-width="2"></path><path fill="#ba0f27" d="M 8 7 L 12 11 8 15 4 11 Z"></path><text x="21" y="15" style="color:#333333;font-size:12px;font-weight:bold;cursor:pointer;fill:#333333;" text-anchor="start" ><tspan>Arcade revenue</tspan></text></g></g></g></g><g class="highcharts-axis-labels highcharts-xaxis-labels" ><text x="146.4" style="color:#000000;cursor:default;font-size:11px;fill:#000000;width:73px;text-overflow:clip;" text-anchor="middle" transform="translate(0,0)" y="356" opacity="1">2000</text><text x="229.20000000000002" style="color:#000000;cursor:default;font-size:11px;fill:#000000;width:73px;text-overflow:clip;" text-anchor="middle" transform="translate(0,0)" y="356" opacity="1">2001</text><text x="312" style="color:#000000;cursor:default;font-size:11px;fill:#000000;width:73px;text-overflow:clip;" text-anchor="middle" transform="translate(0,0)" y="356" opacity="1">2002</text><text x="394.8" style="color:#000000;cursor:default;font-size:11px;fill:#000000;width:73px;text-overflow:clip;" text-anchor="middle" transform="translate(0,0)" y="356" opacity="1">2003</text><text x="477.6" style="color:#000000;cursor:default;font-size:11px;fill:#000000;width:73px;text-overflow:clip;" text-anchor="middle" transform="translate(0,0)" y="356" opacity="1">2004</text><text x="560.4" style="color:#000000;cursor:default;font-size:11px;fill:#000000;width:73px;text-overflow:clip;" text-anchor="middle" transform="translate(0,0)" y="356" opacity="1">2005</text><text x="643.1999999999999" style="color:#000000;cursor:default;font-size:11px;fill:#000000;width:73px;text-overflow:clip;" text-anchor="middle" transform="translate(0,0)" y="356" opacity="1">2006</text><text x="726" style="color:#000000;cursor:default;font-size:11px;fill:#000000;width:73px;text-overflow:clip;" text-anchor="middle" transform="translate(0,0)" y="356" opacity="1">2007</text><text x="808.8" style="color:#000000;cursor:default;font-size:11px;fill:#000000;width:73px;text-overflow:clip;" text-anchor="middle" transform="translate(0,0)" y="356" opacity="1">2008</text><text x="891.6" style="color:#000000;cursor:default;font-size:11px;fill:#000000;width:73px;text-overflow:clip;" text-anchor="middle" transform="translate(0,0)" y="356" opacity="1">2009</text></g><g class="highcharts-axis-labels highcharts-xaxis-labels" ><text x="146.4" style="color:#ba0f27;cursor:default;font-size:11px;fill:#ba0f27;width:73px;text-overflow:clip;" text-anchor="middle" transform="translate(0,0)" y="116" opacity="1">2000</text><text x="229.20000000000002" style="color:#ba0f27;cursor:default;font-size:11px;fill:#ba0f27;width:73px;text-overflow:clip;" text-anchor="middle" transform="translate(0,0)" y="116" opacity="1">2001</text><text x="312" style="color:#ba0f27;cursor:default;font-size:11px;fill:#ba0f27;width:73px;text-overflow:clip;" text-anchor="middle" transform="translate(0,0)" y="116" opacity="1">2002</text><text x="394.8" style="color:#ba0f27;cursor:default;font-size:11px;fill:#ba0f27;width:73px;text-overflow:clip;" text-anchor="middle" transform="translate(0,0)" y="116" opacity="1">2003</text><text x="477.6" style="color:#ba0f27;cursor:default;font-size:11px;fill:#ba0f27;width:73px;text-overflow:clip;" text-anchor="middle" transform="translate(0,0)" y="116" opacity="1">2004</text><text x="560.4" style="color:#ba0f27;cursor:default;font-size:11px;fill:#ba0f27;width:73px;text-overflow:clip;" text-anchor="middle" transform="translate(0,0)" y="116" opacity="1">2005</text><text x="643.1999999999999" style="color:#ba0f27;cursor:default;font-size:11px;fill:#ba0f27;width:73px;text-overflow:clip;" text-anchor="middle" transform="translate(0,0)" y="116" opacity="1">2006</text><text x="726" style="color:#ba0f27;cursor:default;font-size:11px;fill:#ba0f27;width:73px;text-overflow:clip;" text-anchor="middle" transform="translate(0,0)" y="116" opacity="1">2007</text><text x="808.8" style="color:#ba0f27;cursor:default;font-size:11px;fill:#ba0f27;width:73px;text-overflow:clip;" text-anchor="middle" transform="translate(0,0)" y="116" opacity="1">2008</text><text x="891.6" style="color:#ba0f27;cursor:default;font-size:11px;fill:#ba0f27;width:73px;text-overflow:clip;" text-anchor="middle" transform="translate(0,0)" y="116" opacity="1">2009</text></g><g class="highcharts-axis-labels highcharts-yaxis-labels" ><text x="948" style="color:#000000;cursor:default;font-size:11px;fill:#000000;width:333px;text-overflow:clip;" text-anchor="start" transform="translate(0,0)" y="342" opacity="1"><tspan>500 degrees</tspan></text><text x="948" style="color:#000000;cursor:default;font-size:11px;fill:#000000;width:333px;text-overflow:clip;" text-anchor="start" transform="translate(0,0)" y="273" opacity="1"><tspan>1000 degrees</tspan></text><text x="948" style="color:#000000;cursor:default;font-size:11px;fill:#000000;width:333px;text-overflow:clip;" text-anchor="start" transform="translate(0,0)" y="204" opacity="1"><tspan>1500 degrees</tspan></text><text x="948" style="color:#000000;cursor:default;font-size:11px;fill:#000000;width:333px;text-overflow:clip;" text-anchor="start" transform="translate(0,0)" y="136" opacity="1"><tspan>2000 degrees</tspan></text></g><g class="highcharts-axis-labels highcharts-yaxis-labels" ><text x="90" style="color:#ba0f27;cursor:default;font-size:11px;fill:#ba0f27;width:333px;text-overflow:clip;" text-anchor="end" transform="translate(0,0)" y="342" opacity="1"><tspan>$1 billion</tspan></text><text x="90" style="color:#ba0f27;cursor:default;font-size:11px;fill:#ba0f27;width:333px;text-overflow:clip;" text-anchor="end" transform="translate(0,0)" y="290" opacity="1"><tspan>$1.25 billion</tspan></text><text x="90" style="color:#ba0f27;cursor:default;font-size:11px;fill:#ba0f27;width:333px;text-overflow:clip;" text-anchor="end" transform="translate(0,0)" y="239" opacity="1"><tspan>$1.5 billion</tspan></text><text x="90" style="color:#ba0f27;cursor:default;font-size:11px;fill:#ba0f27;width:333px;text-overflow:clip;" text-anchor="end" transform="translate(0,0)" y="187" opacity="1"><tspan>$1.75 billion</tspan></text><text x="90" style="color:#ba0f27;cursor:default;font-size:11px;fill:#ba0f27;width:333px;text-overflow:clip;" text-anchor="end" transform="translate(0,0)" y="136" opacity="1"><tspan>$2 billion</tspan></text></g><g class="highcharts-tooltip"  style="cursor:default;padding:0;white-space:nowrap;" transform="translate(0,-9999)"><path fill="none" d="M 3 0 L 13 0 C 16 0 16 0 16 3 L 16 13 C 16 16 16 16 13 16 L 3 16 C 0 16 0 16 0 13 L 0 3 C 0 0 0 0 3 0"  stroke="black" stroke-opacity="0.049999999999999996" stroke-width="5" transform="translate(1, 1)"></path><path fill="none" d="M 3 0 L 13 0 C 16 0 16 0 16 3 L 16 13 C 16 16 16 16 13 16 L 3 16 C 0 16 0 16 0 13 L 0 3 C 0 0 0 0 3 0"  stroke="black" stroke-opacity="0.09999999999999999" stroke-width="3" transform="translate(1, 1)"></path><path fill="none" d="M 3 0 L 13 0 C 16 0 16 0 16 3 L 16 13 C 16 16 16 16 13 16 L 3 16 C 0 16 0 16 0 13 L 0 3 C 0 0 0 0 3 0"  stroke="black" stroke-opacity="0.15" stroke-width="1" transform="translate(1, 1)"></path><path fill="rgb(249, 249, 249)" fill-opacity=" .85" d="M 3 0 L 13 0 C 16 0 16 0 16 3 L 16 13 C 16 16 16 16 13 16 L 3 16 C 0 16 0 16 0 13 L 0 3 C 0 0 0 0 3 0"></path><text x="8"  style="font-size:12px;color:#333333;fill:#333333;" transform="translate(0,20)"></text></g><text x="1030" text-anchor="end"  style="cursor:pointer;color:#909090;font-size:9px;fill:#909090;" y="405">tylervigen.com</text></svg>