<?xml version="1.0" encoding="UTF-8" standalone="no"?>
<!DOCTYPE svg PUBLIC "-//W3C//DTD SVG 1.1//EN" "http://www.w3.org/Graphics/SVG/1.1/DTD/svg11.dtd">
<svg xmlns:xl="http://www.w3.org/1999/xlink" version="1.1" xmlns:dc="http://purl.org/dc/elements/1.1/" xmlns="http://www.w3.org/2000/svg" viewBox="-3558 -24932 1040 336.57896" width="1040" height="336.57896">
  <defs>
    <font-face font-family="Helvetica" font-size="16" units-per-em="1000" underline-position="-75.68359" underline-thickness="49.316406" slope="0" x-height="522.9492" cap-height="717.28516" ascent="770.0195" descent="-229.98047" font-weight="400">
      <font-face-src>
        <font-face-name name="Helvetica"/>
      </font-face-src>
    </font-face>
    <font-face font-family="Helvetica" font-size="11" units-per-em="1000" underline-position="-75.68359" underline-thickness="49.316406" slope="0" x-height="522.9492" cap-height="717.28516" ascent="770.0195" descent="-229.98047" font-weight="400">
      <font-face-src>
        <font-face-name name="Helvetica"/>
      </font-face-src>
    </font-face>
  </defs>
  <metadata> Produced by OmniGraffle 7.18.3\n2021-04-13 02:28:04 +0000</metadata>
  <g id="Canvas_1" stroke-dasharray="none" fill-opacity="1" stroke-opacity="1" stroke="none" fill="none">
    <title>Canvas 1</title>
    <rect fill="white" x="-3558" y="-24932" width="1040" height="336.57896"/>
    <g id="Canvas_1_Layer_1">
      <title>Layer 1</title>
      <g id="Graphic_359">
        <rect x="-3558" y="-24932" width="1040" height="336.57896" fill="white"/>
      </g>
      <g id="Group_354">
        <g id="Graphic_358">
          <line x1="-3443" y1="-24668.046" x2="-2598" y2="-24668.046" stroke="#d8d8d8" stroke-linecap="butt" stroke-linejoin="round" stroke-width="1"/>
        </g>
        <g id="Graphic_357">
          <line x1="-3443" y1="-24737.165" x2="-2598" y2="-24737.165" stroke="#d8d8d8" stroke-linecap="butt" stroke-linejoin="round" stroke-width="1"/>
        </g>
        <g id="Graphic_356">
          <line x1="-3443" y1="-24805.282" x2="-2598" y2="-24805.282" stroke="#d8d8d8" stroke-linecap="butt" stroke-linejoin="round" stroke-width="1"/>
        </g>
        <g id="Graphic_355">
          <line x1="-3443" y1="-24875.403" x2="-2598" y2="-24875.403" stroke="#d8d8d8" stroke-linecap="butt" stroke-linejoin="round" stroke-width="1"/>
        </g>
      </g>
      <g id="Group_349">
        <g id="Graphic_353">
          <line x1="-3443" y1="-24668.046" x2="-2598" y2="-24668.046" stroke="#d8d8d8" stroke-linecap="butt" stroke-linejoin="round" stroke-width="1"/>
        </g>
        <g id="Graphic_352">
          <line x1="-3443" y1="-24737.165" x2="-2598" y2="-24737.165" stroke="#d8d8d8" stroke-linecap="butt" stroke-linejoin="round" stroke-width="1"/>
        </g>
        <g id="Graphic_351">
          <line x1="-3443" y1="-24805.282" x2="-2598" y2="-24805.282" stroke="#d8d8d8" stroke-linecap="butt" stroke-linejoin="round" stroke-width="1"/>
        </g>
        <g id="Graphic_350">
          <line x1="-3443" y1="-24875.403" x2="-2598" y2="-24875.403" stroke="#d8d8d8" stroke-linecap="butt" stroke-linejoin="round" stroke-width="1"/>
        </g>
      </g>
      <g id="Group_335">
        <g id="Graphic_348">
          <line x1="-3366.5" y1="-24668.547" x2="-3366.5" y2="-24658.53" stroke="#c0d0e0" stroke-linecap="butt" stroke-linejoin="round" stroke-width="1"/>
        </g>
        <g id="Graphic_347">
          <line x1="-3289.5" y1="-24668.547" x2="-3289.5" y2="-24658.53" stroke="#c0d0e0" stroke-linecap="butt" stroke-linejoin="round" stroke-width="1"/>
        </g>
        <g id="Graphic_346">
          <line x1="-3213.5" y1="-24668.547" x2="-3213.5" y2="-24658.53" stroke="#c0d0e0" stroke-linecap="butt" stroke-linejoin="round" stroke-width="1"/>
        </g>
        <g id="Graphic_345">
          <line x1="-3136.5" y1="-24668.547" x2="-3136.5" y2="-24658.53" stroke="#c0d0e0" stroke-linecap="butt" stroke-linejoin="round" stroke-width="1"/>
        </g>
        <g id="Graphic_344">
          <line x1="-3059.5" y1="-24668.547" x2="-3059.5" y2="-24658.53" stroke="#c0d0e0" stroke-linecap="butt" stroke-linejoin="round" stroke-width="1"/>
        </g>
        <g id="Graphic_343">
          <line x1="-2982.5" y1="-24668.547" x2="-2982.5" y2="-24658.53" stroke="#c0d0e0" stroke-linecap="butt" stroke-linejoin="round" stroke-width="1"/>
        </g>
        <g id="Graphic_342">
          <line x1="-2905.5" y1="-24668.547" x2="-2905.5" y2="-24658.53" stroke="#c0d0e0" stroke-linecap="butt" stroke-linejoin="round" stroke-width="1"/>
        </g>
        <g id="Graphic_341">
          <line x1="-2828.5" y1="-24668.547" x2="-2828.5" y2="-24658.53" stroke="#c0d0e0" stroke-linecap="butt" stroke-linejoin="round" stroke-width="1"/>
        </g>
        <g id="Graphic_340">
          <line x1="-2752.5" y1="-24668.547" x2="-2752.5" y2="-24658.53" stroke="#c0d0e0" stroke-linecap="butt" stroke-linejoin="round" stroke-width="1"/>
        </g>
        <g id="Graphic_339">
          <line x1="-2675.5" y1="-24668.547" x2="-2675.5" y2="-24658.53" stroke="#c0d0e0" stroke-linecap="butt" stroke-linejoin="round" stroke-width="1"/>
        </g>
        <g id="Graphic_338">
          <line x1="-2598.5" y1="-24668.547" x2="-2598.5" y2="-24658.53" stroke="#c0d0e0" stroke-linecap="butt" stroke-linejoin="round" stroke-width="1"/>
        </g>
        <g id="Graphic_337">
          <line x1="-3443.5" y1="-24668.547" x2="-3443.5" y2="-24658.53" stroke="#c0d0e0" stroke-linecap="butt" stroke-linejoin="round" stroke-width="1"/>
        </g>
        <g id="Graphic_336">
          <line x1="-3443" y1="-24668.046" x2="-2598" y2="-24668.046" stroke="#c0d0e0" stroke-linecap="butt" stroke-linejoin="round" stroke-width="1"/>
        </g>
      </g>
      <g id="Group_321">
        <g id="Graphic_334">
          <line x1="-3366.5" y1="-24874.902" x2="-3366.5" y2="-24884.92" stroke="#c0d0e0" stroke-linecap="butt" stroke-linejoin="round" stroke-width="1"/>
        </g>
        <g id="Graphic_333">
          <line x1="-3289.5" y1="-24874.902" x2="-3289.5" y2="-24884.92" stroke="#c0d0e0" stroke-linecap="butt" stroke-linejoin="round" stroke-width="1"/>
        </g>
        <g id="Graphic_332">
          <line x1="-3213.5" y1="-24874.902" x2="-3213.5" y2="-24884.92" stroke="#c0d0e0" stroke-linecap="butt" stroke-linejoin="round" stroke-width="1"/>
        </g>
        <g id="Graphic_331">
          <line x1="-3136.5" y1="-24874.902" x2="-3136.5" y2="-24884.92" stroke="#c0d0e0" stroke-linecap="butt" stroke-linejoin="round" stroke-width="1"/>
        </g>
        <g id="Graphic_330">
          <line x1="-3059.5" y1="-24874.902" x2="-3059.5" y2="-24884.92" stroke="#c0d0e0" stroke-linecap="butt" stroke-linejoin="round" stroke-width="1"/>
        </g>
        <g id="Graphic_329">
          <line x1="-2982.5" y1="-24874.902" x2="-2982.5" y2="-24884.92" stroke="#c0d0e0" stroke-linecap="butt" stroke-linejoin="round" stroke-width="1"/>
        </g>
        <g id="Graphic_328">
          <line x1="-2905.5" y1="-24874.902" x2="-2905.5" y2="-24884.92" stroke="#c0d0e0" stroke-linecap="butt" stroke-linejoin="round" stroke-width="1"/>
        </g>
        <g id="Graphic_327">
          <line x1="-2828.5" y1="-24874.902" x2="-2828.5" y2="-24884.92" stroke="#c0d0e0" stroke-linecap="butt" stroke-linejoin="round" stroke-width="1"/>
        </g>
        <g id="Graphic_326">
          <line x1="-2752.5" y1="-24874.902" x2="-2752.5" y2="-24884.92" stroke="#c0d0e0" stroke-linecap="butt" stroke-linejoin="round" stroke-width="1"/>
        </g>
        <g id="Graphic_325">
          <line x1="-2675.5" y1="-24874.902" x2="-2675.5" y2="-24884.92" stroke="#c0d0e0" stroke-linecap="butt" stroke-linejoin="round" stroke-width="1"/>
        </g>
        <g id="Graphic_324">
          <line x1="-2598.5" y1="-24874.902" x2="-2598.5" y2="-24884.92" stroke="#c0d0e0" stroke-linecap="butt" stroke-linejoin="round" stroke-width="1"/>
        </g>
        <g id="Graphic_323">
          <line x1="-3443.5" y1="-24874.902" x2="-3443.5" y2="-24884.92" stroke="#c0d0e0" stroke-linecap="butt" stroke-linejoin="round" stroke-width="1"/>
        </g>
        <g id="Graphic_322">
          <line x1="-3443" y1="-24875.403" x2="-2598" y2="-24875.403" stroke="#c0d0e0" stroke-linecap="butt" stroke-linejoin="round" stroke-width="1"/>
        </g>
      </g>
      <g id="Group_319">
        <g id="Graphic_320">
          <title>Text</title>
          <text transform="translate(-2518 -24814.383) rotate(90)" fill="black">
            <tspan font-family="Helvetica" font-size="16" font-weight="400" fill="black" x="0" y="15">Nicholas Cage</tspan>
          </text>
        </g>
      </g>
      <g id="Group_317">
        <g id="Graphic_318">
          <title>Text</title>
          <text transform="translate(-3558 -24679.01) rotate(-90)" fill="#ba0f27">
            <tspan font-family="Helvetica" font-size="16" font-weight="400" fill="#ba0f27" x="0" y="15">Swimming pool drownings</tspan>
          </text>
        </g>
      </g>
      <g id="Group_288">
        <g id="Group_315">
          <g id="Graphic_316">
            <path d="M -3404.591 -24737.332 C -3404.591 -24737.332 -3358.5 -24737.332 -3327.7727 -24737.332 C -3297.0455 -24737.332 -3281.682 -24737.332 -3250.9545 -24737.332 C -3220.2273 -24737.332 -3204.8636 -24771.724 -3174.1364 -24771.724 C -3143.409 -24771.724 -3128.0455 -24702.94 -3097.318 -24702.94 C -3066.591 -24702.94 -3051.2273 -24702.94 -3020.5 -24702.94 C -2989.7727 -24702.94 -2974.409 -24723.575 -2943.6818 -24737.332 C -2912.9545 -24751.09 -2897.591 -24757.967 -2866.8636 -24771.724 C -2836.1364 -24785.48 -2820.7727 -24806.117 -2790.0455 -24806.117 C -2759.3182 -24806.117 -2743.9545 -24702.94 -2713.2273 -24702.94 C -2682.5 -24702.94 -2636.409 -24806.117 -2636.409 -24806.117" stroke="black" stroke-linecap="round" stroke-linejoin="round" stroke-width="2"/>
          </g>
        </g>
        <g id="Group_303">
          <g id="Graphic_314">
            <path d="M -2637 -24810.124 C -2631.672 -24810.124 -2631.672 -24802.11 -2637 -24802.11 C -2642.328 -24802.11 -2642.328 -24810.124 -2637 -24810.124 Z" fill="black"/>
          </g>
          <g id="Graphic_313">
            <path d="M -2714 -24706.946 C -2708.672 -24706.946 -2708.672 -24698.932 -2714 -24698.932 C -2719.328 -24698.932 -2719.328 -24706.946 -2714 -24706.946 Z" fill="black"/>
          </g>
          <g id="Graphic_312">
            <path d="M -2791 -24810.124 C -2785.672 -24810.124 -2785.672 -24802.11 -2791 -24802.11 C -2796.328 -24802.11 -2796.328 -24810.124 -2791 -24810.124 Z" fill="black"/>
          </g>
          <g id="Graphic_311">
            <path d="M -2867 -24775.73 C -2861.672 -24775.73 -2861.672 -24767.717 -2867 -24767.717 C -2872.328 -24767.717 -2872.328 -24775.73 -2867 -24775.73 Z" fill="black"/>
          </g>
          <g id="Graphic_310">
            <path d="M -2944 -24741.34 C -2938.672 -24741.34 -2938.672 -24733.325 -2944 -24733.325 C -2949.328 -24733.325 -2949.328 -24741.34 -2944 -24741.34 Z" fill="black"/>
          </g>
          <g id="Graphic_309">
            <path d="M -3021 -24706.946 C -3015.672 -24706.946 -3015.672 -24698.932 -3021 -24698.932 C -3026.328 -24698.932 -3026.328 -24706.946 -3021 -24706.946 Z" fill="black"/>
          </g>
          <g id="Graphic_308">
            <path d="M -3098 -24706.946 C -3092.672 -24706.946 -3092.672 -24698.932 -3098 -24698.932 C -3103.328 -24698.932 -3103.328 -24706.946 -3098 -24706.946 Z" fill="black"/>
          </g>
          <g id="Graphic_307">
            <path d="M -3175 -24775.73 C -3169.672 -24775.73 -3169.672 -24767.717 -3175 -24767.717 C -3180.328 -24767.717 -3180.328 -24775.73 -3175 -24775.73 Z" fill="black"/>
          </g>
          <g id="Graphic_306">
            <path d="M -3251 -24741.34 C -3245.672 -24741.34 -3245.672 -24733.325 -3251 -24733.325 C -3256.328 -24733.325 -3256.328 -24741.34 -3251 -24741.34 Z" fill="black"/>
          </g>
          <g id="Graphic_305">
            <path d="M -3328 -24741.34 C -3322.672 -24741.34 -3322.672 -24733.325 -3328 -24733.325 C -3333.328 -24733.325 -3333.328 -24741.34 -3328 -24741.34 Z" fill="black"/>
          </g>
          <g id="Graphic_304">
            <path d="M -3405 -24741.34 C -3399.672 -24741.34 -3399.672 -24733.325 -3405 -24733.325 C -3410.328 -24733.325 -3410.328 -24741.34 -3405 -24741.34 Z" fill="black"/>
          </g>
        </g>
        <g id="Group_301">
          <g id="Graphic_302">
            <path d="M -3404.591 -24768.285 C -3404.591 -24768.285 -3358.5 -24744.21 -3327.7727 -24744.21 C -3297.0455 -24744.21 -3281.682 -24744.21 -3250.9545 -24744.21 C -3220.2273 -24744.21 -3204.8636 -24742.147 -3174.1364 -24730.453 C -3143.409 -24718.76 -3128.0455 -24685.743 -3097.318 -24685.743 C -3066.591 -24685.743 -3051.2273 -24716.696 -3020.5 -24720.136 C -2989.7727 -24723.575 -2974.409 -24721.51 -2943.6818 -24723.575 C -2912.9545 -24725.638 -2897.591 -24723.575 -2866.8636 -24730.453 C -2836.1364 -24737.332 -2820.7727 -24816.435 -2790.0455 -24816.435 C -2759.3182 -24816.435 -2743.9545 -24716.696 -2713.2273 -24716.696 C -2682.5 -24716.696 -2636.409 -24744.21 -2636.409 -24744.21" stroke="#ba0f27" stroke-linecap="round" stroke-linejoin="round" stroke-width="2"/>
          </g>
        </g>
        <g id="Group_289">
          <g id="Graphic_300">
            <path d="M -2637 -24748.217 L -2633 -24744.21 L -2637 -24740.203 L -2641 -24744.21 Z" fill="#ba0f27"/>
          </g>
          <g id="Graphic_299">
            <path d="M -2714 -24720.703 L -2710 -24716.696 L -2714 -24712.69 L -2718 -24716.696 Z" fill="#ba0f27"/>
          </g>
          <g id="Graphic_298">
            <path d="M -2791 -24820.44 L -2787 -24816.435 L -2791 -24812.428 L -2795 -24816.435 Z" fill="#ba0f27"/>
          </g>
          <g id="Graphic_297">
            <path d="M -2867 -24734.46 L -2863 -24730.453 L -2867 -24726.446 L -2871 -24730.453 Z" fill="#ba0f27"/>
          </g>
          <g id="Graphic_296">
            <path d="M -2944 -24727.582 L -2940 -24723.575 L -2944 -24719.568 L -2948 -24723.575 Z" fill="#ba0f27"/>
          </g>
          <g id="Graphic_295">
            <path d="M -3021 -24724.142 L -3017 -24720.136 L -3021 -24716.13 L -3025 -24720.136 Z" fill="#ba0f27"/>
          </g>
          <g id="Graphic_294">
            <path d="M -3098 -24689.75 L -3094 -24685.743 L -3098 -24681.736 L -3102 -24685.743 Z" fill="#ba0f27"/>
          </g>
          <g id="Graphic_293">
            <path d="M -3175 -24734.46 L -3171 -24730.453 L -3175 -24726.446 L -3179 -24730.453 Z" fill="#ba0f27"/>
          </g>
          <g id="Graphic_292">
            <path d="M -3251 -24748.217 L -3247 -24744.21 L -3251 -24740.203 L -3255 -24744.21 Z" fill="#ba0f27"/>
          </g>
          <g id="Graphic_291">
            <path d="M -3328 -24748.217 L -3324 -24744.21 L -3328 -24740.203 L -3332 -24744.21 Z" fill="#ba0f27"/>
          </g>
          <g id="Graphic_290">
            <path d="M -3405 -24772.292 L -3401 -24768.285 L -3405 -24764.278 L -3409 -24768.285 Z" fill="#ba0f27"/>
          </g>
        </g>
      </g>
      <g id="Group_277">
        <g id="Group_278">
          <g id="Group_279">
            <g id="Group_284">
              <g id="Graphic_287">
                <line x1="-3202" y1="-24621.466" x2="-3186" y2="-24621.466" stroke="black" stroke-linecap="butt" stroke-linejoin="round" stroke-width="2"/>
              </g>
              <g id="Graphic_286">
                <path d="M -3194 -24625.473 C -3188.672 -24625.473 -3188.672 -24617.46 -3194 -24617.46 C -3199.328 -24617.46 -3199.328 -24625.473 -3194 -24625.473 Z" fill="black"/>
              </g>
              <g id="Graphic_285">
                <title>Text</title>
                <text transform="translate(-3181 -24632.79)" fill="#333">
                  <tspan font-family="Helvetica" font-size="16" font-weight="400" fill="#333" x="0" y="15">Nicholas Cage</tspan>
                </text>
              </g>
            </g>
            <g id="Group_280">
              <g id="Graphic_283">
                <line x1="-3060" y1="-24621.466" x2="-3044" y2="-24621.466" stroke="#ba0f27" stroke-linecap="butt" stroke-linejoin="round" stroke-width="2"/>
              </g>
              <g id="Graphic_282">
                <path d="M -3052 -24625.473 L -3048 -24621.466 L -3052 -24617.46 L -3056 -24621.466 Z" fill="#ba0f27"/>
              </g>
              <g id="Graphic_281">
                <title>Text</title>
                <text transform="translate(-3039 -24632.79)" fill="#333">
                  <tspan font-family="Helvetica" font-size="16" font-weight="400" fill="#333" x="0" y="15">Swimming pool drownings</tspan>
                </text>
              </g>
            </g>
          </g>
        </g>
      </g>
      <g id="Group_265">
        <g id="Graphic_276">
          <title>Text</title>
          <text transform="translate(-3416.8263 -24659.99)" fill="black">
            <tspan font-family="Helvetica" font-size="11" font-weight="400" fill="black" x="0" y="10">1999</tspan>
          </text>
        </g>
        <g id="Graphic_275">
          <title>Text</title>
          <text transform="translate(-3340.008 -24659.99)" fill="black">
            <tspan font-family="Helvetica" font-size="11" font-weight="400" fill="black" x="0" y="10">2000</tspan>
          </text>
        </g>
        <g id="Graphic_274">
          <title>Text</title>
          <text transform="translate(-3263.19 -24659.99)" fill="black">
            <tspan font-family="Helvetica" font-size="11" font-weight="400" fill="black" x="0" y="10">2001</tspan>
          </text>
        </g>
        <g id="Graphic_273">
          <title>Text</title>
          <text transform="translate(-3186.3717 -24659.99)" fill="black">
            <tspan font-family="Helvetica" font-size="11" font-weight="400" fill="black" x="0" y="10">2002</tspan>
          </text>
        </g>
        <g id="Graphic_272">
          <title>Text</title>
          <text transform="translate(-3109.5535 -24659.99)" fill="black">
            <tspan font-family="Helvetica" font-size="11" font-weight="400" fill="black" x="0" y="10">2003</tspan>
          </text>
        </g>
        <g id="Graphic_271">
          <title>Text</title>
          <text transform="translate(-3032.7354 -24659.99)" fill="black">
            <tspan font-family="Helvetica" font-size="11" font-weight="400" fill="black" x="0" y="10">2004</tspan>
          </text>
        </g>
        <g id="Graphic_270">
          <title>Text</title>
          <text transform="translate(-2955.917 -24659.99)" fill="black">
            <tspan font-family="Helvetica" font-size="11" font-weight="400" fill="black" x="0" y="10">2005</tspan>
          </text>
        </g>
        <g id="Graphic_269">
          <title>Text</title>
          <text transform="translate(-2879.099 -24659.99)" fill="black">
            <tspan font-family="Helvetica" font-size="11" font-weight="400" fill="black" x="0" y="10">2006</tspan>
          </text>
        </g>
        <g id="Graphic_268">
          <title>Text</title>
          <text transform="translate(-2802.2808 -24659.99)" fill="black">
            <tspan font-family="Helvetica" font-size="11" font-weight="400" fill="black" x="0" y="10">2007</tspan>
          </text>
        </g>
        <g id="Graphic_267">
          <title>Text</title>
          <text transform="translate(-2725.4626 -24659.99)" fill="black">
            <tspan font-family="Helvetica" font-size="11" font-weight="400" fill="black" x="0" y="10">2008</tspan>
          </text>
        </g>
        <g id="Graphic_266">
          <title>Text</title>
          <text transform="translate(-2648.6444 -24659.99)" fill="black">
            <tspan font-family="Helvetica" font-size="11" font-weight="400" fill="black" x="0" y="10">2009</tspan>
          </text>
        </g>
      </g>
      <g id="Group_253">
        <g id="Graphic_264">
          <title>Text</title>
          <text transform="translate(-3416.8263 -24900.405)" fill="#ba0f27">
            <tspan font-family="Helvetica" font-size="11" font-weight="400" fill="#ba0f27" x="0" y="10">1999</tspan>
          </text>
        </g>
        <g id="Graphic_263">
          <title>Text</title>
          <text transform="translate(-3340.008 -24900.405)" fill="#ba0f27">
            <tspan font-family="Helvetica" font-size="11" font-weight="400" fill="#ba0f27" x="0" y="10">2000</tspan>
          </text>
        </g>
        <g id="Graphic_262">
          <title>Text</title>
          <text transform="translate(-3263.19 -24900.405)" fill="#ba0f27">
            <tspan font-family="Helvetica" font-size="11" font-weight="400" fill="#ba0f27" x="0" y="10">2001</tspan>
          </text>
        </g>
        <g id="Graphic_261">
          <title>Text</title>
          <text transform="translate(-3186.3717 -24900.405)" fill="#ba0f27">
            <tspan font-family="Helvetica" font-size="11" font-weight="400" fill="#ba0f27" x="0" y="10">2002</tspan>
          </text>
        </g>
        <g id="Graphic_260">
          <title>Text</title>
          <text transform="translate(-3109.5535 -24900.405)" fill="#ba0f27">
            <tspan font-family="Helvetica" font-size="11" font-weight="400" fill="#ba0f27" x="0" y="10">2003</tspan>
          </text>
        </g>
        <g id="Graphic_259">
          <title>Text</title>
          <text transform="translate(-3032.7354 -24900.405)" fill="#ba0f27">
            <tspan font-family="Helvetica" font-size="11" font-weight="400" fill="#ba0f27" x="0" y="10">2004</tspan>
          </text>
        </g>
        <g id="Graphic_258">
          <title>Text</title>
          <text transform="translate(-2955.917 -24900.405)" fill="#ba0f27">
            <tspan font-family="Helvetica" font-size="11" font-weight="400" fill="#ba0f27" x="0" y="10">2005</tspan>
          </text>
        </g>
        <g id="Graphic_257">
          <title>Text</title>
          <text transform="translate(-2879.099 -24900.405)" fill="#ba0f27">
            <tspan font-family="Helvetica" font-size="11" font-weight="400" fill="#ba0f27" x="0" y="10">2006</tspan>
          </text>
        </g>
        <g id="Graphic_256">
          <title>Text</title>
          <text transform="translate(-2802.2808 -24900.405)" fill="#ba0f27">
            <tspan font-family="Helvetica" font-size="11" font-weight="400" fill="#ba0f27" x="0" y="10">2007</tspan>
          </text>
        </g>
        <g id="Graphic_255">
          <title>Text</title>
          <text transform="translate(-2725.4626 -24900.405)" fill="#ba0f27">
            <tspan font-family="Helvetica" font-size="11" font-weight="400" fill="#ba0f27" x="0" y="10">2008</tspan>
          </text>
        </g>
        <g id="Graphic_254">
          <title>Text</title>
          <text transform="translate(-2648.6444 -24900.405)" fill="#ba0f27">
            <tspan font-family="Helvetica" font-size="11" font-weight="400" fill="#ba0f27" x="0" y="10">2009</tspan>
          </text>
        </g>
      </g>
      <g id="Group_248">
        <g id="Graphic_252">
          <title>Text</title>
          <text transform="translate(-2583 -24674.015)" fill="black">
            <tspan font-family="Helvetica" font-size="11" font-weight="400" fill="black" x="0" y="10">0 films</tspan>
          </text>
        </g>
        <g id="Graphic_251">
          <title>Text</title>
          <text transform="translate(-2583 -24743.134)" fill="black">
            <tspan font-family="Helvetica" font-size="11" font-weight="400" fill="black" x="0" y="10">2 films</tspan>
          </text>
        </g>
        <g id="Graphic_250">
          <title>Text</title>
          <text transform="translate(-2583 -24812.253)" fill="black">
            <tspan font-family="Helvetica" font-size="11" font-weight="400" fill="black" x="0" y="10">4 films</tspan>
          </text>
        </g>
        <g id="Graphic_249">
          <title>Text</title>
          <text transform="translate(-2583 -24880.37)" fill="black">
            <tspan font-family="Helvetica" font-size="11" font-weight="400" fill="black" x="0" y="10">6 films</tspan>
          </text>
        </g>
      </g>
      <g id="Group_243">
        <g id="Graphic_247">
          <title>Text</title>
          <text transform="translate(-3523.4307 -24674.015)" fill="#ba0f27">
            <tspan font-family="Helvetica" font-size="11" font-weight="400" fill="#ba0f27" x="0" y="10">80 drownings</tspan>
          </text>
        </g>
        <g id="Graphic_246">
          <title>Text</title>
          <text transform="translate(-3529.5483 -24743.134)" fill="#ba0f27">
            <tspan font-family="Helvetica" font-size="11" font-weight="400" fill="#ba0f27" x="0" y="10">100 drownings</tspan>
          </text>
        </g>
        <g id="Graphic_245">
          <title>Text</title>
          <text transform="translate(-3529.5483 -24812.253)" fill="#ba0f27">
            <tspan font-family="Helvetica" font-size="11" font-weight="400" fill="#ba0f27" x="0" y="10">120 drownings</tspan>
          </text>
        </g>
        <g id="Graphic_244">
          <title>Text</title>
          <text transform="translate(-3529.5483 -24880.37)" fill="#ba0f27">
            <tspan font-family="Helvetica" font-size="11" font-weight="400" fill="#ba0f27" x="0" y="10">140 drownings</tspan>
          </text>
        </g>
      </g>
    </g>
  </g>
</svg>
