<?xml version="1.0" encoding="UTF-8" standalone="no"?>
<!DOCTYPE svg PUBLIC "-//W3C//DTD SVG 1.1//EN" "http://www.w3.org/Graphics/SVG/1.1/DTD/svg11.dtd">
<svg xmlns:xl="http://www.w3.org/1999/xlink" version="1.1" xmlns:dc="http://purl.org/dc/elements/1.1/" xmlns="http://www.w3.org/2000/svg" viewBox="28 -9593.055 1040 339.0547" width="1040" height="339.0547">
  <defs>
    <font-face font-family="Helvetica" font-size="16" units-per-em="1000" underline-position="-75.68359" underline-thickness="49.316406" slope="0" x-height="522.9492" cap-height="717.28516" ascent="770.0195" descent="-229.98047" font-weight="400">
      <font-face-src>
        <font-face-name name="Helvetica"/>
      </font-face-src>
    </font-face>
    <font-face font-family="Helvetica" font-size="11" units-per-em="1000" underline-position="-75.68359" underline-thickness="49.316406" slope="0" x-height="522.9492" cap-height="717.28516" ascent="770.0195" descent="-229.98047" font-weight="400">
      <font-face-src>
        <font-face-name name="Helvetica"/>
      </font-face-src>
    </font-face>
    <font-face font-family="Helvetica" font-size="9" units-per-em="1000" underline-position="-75.68359" underline-thickness="49.316406" slope="0" x-height="522.9492" cap-height="717.28516" ascent="770.0195" descent="-229.98047" font-weight="400">
      <font-face-src>
        <font-face-name name="Helvetica"/>
      </font-face-src>
    </font-face>
  </defs>
  <metadata> Produced by OmniGraffle 7.18.3\n2021-04-13 02:28:56 +0000</metadata>
  <g id="Canvas_1" stroke-dasharray="none" fill-opacity="1" stroke-opacity="1" stroke="none" fill="none">
    <title>Canvas 1</title>
    <rect fill="white" x="28" y="-9593.055" width="1040" height="339.0547"/>
    <g id="Canvas_1_Layer_1">
      <title>Layer 1</title>
      <g id="Graphic_243">
        <rect x="28" y="-9578" width="1040" height="324" fill="white"/>
      </g>
      <g id="Group_238">
        <g id="Graphic_242">
          <line x1="125" y1="-9326.5" x2="953" y2="-9326.5" stroke="#d8d8d8" stroke-linecap="butt" stroke-linejoin="round" stroke-width="1"/>
        </g>
        <g id="Graphic_241">
          <line x1="125" y1="-9395.5" x2="953" y2="-9395.5" stroke="#d8d8d8" stroke-linecap="butt" stroke-linejoin="round" stroke-width="1"/>
        </g>
        <g id="Graphic_240">
          <line x1="125" y1="-9463.5" x2="953" y2="-9463.5" stroke="#d8d8d8" stroke-linecap="butt" stroke-linejoin="round" stroke-width="1"/>
        </g>
        <g id="Graphic_239">
          <line x1="125" y1="-9533.5" x2="953" y2="-9533.5" stroke="#d8d8d8" stroke-linecap="butt" stroke-linejoin="round" stroke-width="1"/>
        </g>
      </g>
      <g id="Group_233">
        <g id="Graphic_237">
          <line x1="125" y1="-9326.5" x2="953" y2="-9326.5" stroke="#d8d8d8" stroke-linecap="butt" stroke-linejoin="round" stroke-width="1"/>
        </g>
        <g id="Graphic_236">
          <line x1="125" y1="-9395.5" x2="953" y2="-9395.5" stroke="#d8d8d8" stroke-linecap="butt" stroke-linejoin="round" stroke-width="1"/>
        </g>
        <g id="Graphic_235">
          <line x1="125" y1="-9463.5" x2="953" y2="-9463.5" stroke="#d8d8d8" stroke-linecap="butt" stroke-linejoin="round" stroke-width="1"/>
        </g>
        <g id="Graphic_234">
          <line x1="125" y1="-9533.5" x2="953" y2="-9533.5" stroke="#d8d8d8" stroke-linecap="butt" stroke-linejoin="round" stroke-width="1"/>
        </g>
      </g>
      <g id="Group_219">
        <g id="Graphic_232">
          <line x1="199.5" y1="-9327" x2="199.5" y2="-9317" stroke="#c0d0e0" stroke-linecap="butt" stroke-linejoin="round" stroke-width="1"/>
        </g>
        <g id="Graphic_231">
          <line x1="275.5" y1="-9327" x2="275.5" y2="-9317" stroke="#c0d0e0" stroke-linecap="butt" stroke-linejoin="round" stroke-width="1"/>
        </g>
        <g id="Graphic_230">
          <line x1="350.5" y1="-9327" x2="350.5" y2="-9317" stroke="#c0d0e0" stroke-linecap="butt" stroke-linejoin="round" stroke-width="1"/>
        </g>
        <g id="Graphic_229">
          <line x1="425.5" y1="-9327" x2="425.5" y2="-9317" stroke="#c0d0e0" stroke-linecap="butt" stroke-linejoin="round" stroke-width="1"/>
        </g>
        <g id="Graphic_228">
          <line x1="500.5" y1="-9327" x2="500.5" y2="-9317" stroke="#c0d0e0" stroke-linecap="butt" stroke-linejoin="round" stroke-width="1"/>
        </g>
        <g id="Graphic_227">
          <line x1="576.5" y1="-9327" x2="576.5" y2="-9317" stroke="#c0d0e0" stroke-linecap="butt" stroke-linejoin="round" stroke-width="1"/>
        </g>
        <g id="Graphic_226">
          <line x1="651.5" y1="-9327" x2="651.5" y2="-9317" stroke="#c0d0e0" stroke-linecap="butt" stroke-linejoin="round" stroke-width="1"/>
        </g>
        <g id="Graphic_225">
          <line x1="726.5" y1="-9327" x2="726.5" y2="-9317" stroke="#c0d0e0" stroke-linecap="butt" stroke-linejoin="round" stroke-width="1"/>
        </g>
        <g id="Graphic_224">
          <line x1="801.5" y1="-9327" x2="801.5" y2="-9317" stroke="#c0d0e0" stroke-linecap="butt" stroke-linejoin="round" stroke-width="1"/>
        </g>
        <g id="Graphic_223">
          <line x1="877.5" y1="-9327" x2="877.5" y2="-9317" stroke="#c0d0e0" stroke-linecap="butt" stroke-linejoin="round" stroke-width="1"/>
        </g>
        <g id="Graphic_222">
          <line x1="952.5" y1="-9327" x2="952.5" y2="-9317" stroke="#c0d0e0" stroke-linecap="butt" stroke-linejoin="round" stroke-width="1"/>
        </g>
        <g id="Graphic_221">
          <line x1="124.5" y1="-9327" x2="124.5" y2="-9317" stroke="#c0d0e0" stroke-linecap="butt" stroke-linejoin="round" stroke-width="1"/>
        </g>
        <g id="Graphic_220">
          <line x1="125" y1="-9326.5" x2="953" y2="-9326.5" stroke="#c0d0e0" stroke-linecap="butt" stroke-linejoin="round" stroke-width="1"/>
        </g>
      </g>
      <g id="Group_205">
        <g id="Graphic_218">
          <line x1="199.5" y1="-9533" x2="199.5" y2="-9543" stroke="#c0d0e0" stroke-linecap="butt" stroke-linejoin="round" stroke-width="1"/>
        </g>
        <g id="Graphic_217">
          <line x1="275.5" y1="-9533" x2="275.5" y2="-9543" stroke="#c0d0e0" stroke-linecap="butt" stroke-linejoin="round" stroke-width="1"/>
        </g>
        <g id="Graphic_216">
          <line x1="350.5" y1="-9533" x2="350.5" y2="-9543" stroke="#c0d0e0" stroke-linecap="butt" stroke-linejoin="round" stroke-width="1"/>
        </g>
        <g id="Graphic_215">
          <line x1="425.5" y1="-9533" x2="425.5" y2="-9543" stroke="#c0d0e0" stroke-linecap="butt" stroke-linejoin="round" stroke-width="1"/>
        </g>
        <g id="Graphic_214">
          <line x1="500.5" y1="-9533" x2="500.5" y2="-9543" stroke="#c0d0e0" stroke-linecap="butt" stroke-linejoin="round" stroke-width="1"/>
        </g>
        <g id="Graphic_213">
          <line x1="576.5" y1="-9533" x2="576.5" y2="-9543" stroke="#c0d0e0" stroke-linecap="butt" stroke-linejoin="round" stroke-width="1"/>
        </g>
        <g id="Graphic_212">
          <line x1="651.5" y1="-9533" x2="651.5" y2="-9543" stroke="#c0d0e0" stroke-linecap="butt" stroke-linejoin="round" stroke-width="1"/>
        </g>
        <g id="Graphic_211">
          <line x1="726.5" y1="-9533" x2="726.5" y2="-9543" stroke="#c0d0e0" stroke-linecap="butt" stroke-linejoin="round" stroke-width="1"/>
        </g>
        <g id="Graphic_210">
          <line x1="801.5" y1="-9533" x2="801.5" y2="-9543" stroke="#c0d0e0" stroke-linecap="butt" stroke-linejoin="round" stroke-width="1"/>
        </g>
        <g id="Graphic_209">
          <line x1="877.5" y1="-9533" x2="877.5" y2="-9543" stroke="#c0d0e0" stroke-linecap="butt" stroke-linejoin="round" stroke-width="1"/>
        </g>
        <g id="Graphic_208">
          <line x1="952.5" y1="-9533" x2="952.5" y2="-9543" stroke="#c0d0e0" stroke-linecap="butt" stroke-linejoin="round" stroke-width="1"/>
        </g>
        <g id="Graphic_207">
          <line x1="124.5" y1="-9533" x2="124.5" y2="-9543" stroke="#c0d0e0" stroke-linecap="butt" stroke-linejoin="round" stroke-width="1"/>
        </g>
        <g id="Graphic_206">
          <line x1="125" y1="-9533.5" x2="953" y2="-9533.5" stroke="#c0d0e0" stroke-linecap="butt" stroke-linejoin="round" stroke-width="1"/>
        </g>
      </g>
      <g id="Group_203">
        <g id="Graphic_204">
          <title>Text</title>
          <text transform="translate(1059.0234 -9439.5) rotate(90)" fill="black">
            <tspan font-family="Helvetica" font-size="16" font-weight="400" fill="black" x="0" y="15">Hanging suicides</tspan>
          </text>
        </g>
      </g>
      <g id="Group_201">
        <g id="Graphic_202">
          <title>Text</title>
          <text transform="translate(36.695312 -9420.5) rotate(-90)" fill="#ba0f27">
            <tspan font-family="Helvetica" font-size="16" font-weight="400" fill="#ba0f27" x="0" y="15">US spending on science</tspan>
          </text>
        </g>
      </g>
      <g id="Group_172">
        <g id="Group_199">
          <g id="Graphic_200">
            <path d="M 162.63636 -9375.994 C 162.63636 -9375.994 207.8 -9379.66 237.9091 -9384.955 C 268.01818 -9390.249 283.07273 -9397.15 313.1818 -9402.465 C 343.2909 -9407.78 358.34545 -9408.528 388.45455 -9411.529 C 418.56364 -9414.529 433.6182 -9411.529 463.7273 -9417.468 C 493.83636 -9423.408 508.8909 -9441.536 539 -9441.536 C 569.1091 -9441.536 584.16364 -9438.515 614.2727 -9438.515 C 644.3818 -9438.515 659.4364 -9440.588 689.54545 -9446.858 C 719.65455 -9453.127 734.7091 -9462.397 764.8182 -9469.861 C 794.9273 -9477.325 809.9818 -9478.417 840.0909 -9484.178 C 870.2 -9489.939 915.3636 -9498.667 915.3636 -9498.667" stroke="black" stroke-linecap="round" stroke-linejoin="round" stroke-width="2"/>
          </g>
        </g>
        <g id="Group_187">
          <g id="Graphic_198">
            <path d="M 915 -9502.667 C 920.328 -9502.667 920.328 -9494.667 915 -9494.667 C 909.672 -9494.667 909.672 -9502.667 915 -9502.667 Z" fill="black"/>
          </g>
          <g id="Graphic_197">
            <path d="M 840 -9488.178 C 845.328 -9488.178 845.328 -9480.178 840 -9480.178 C 834.672 -9480.178 834.672 -9488.178 840 -9488.178 Z" fill="black"/>
          </g>
          <g id="Graphic_196">
            <path d="M 764 -9473.861 C 769.328 -9473.861 769.328 -9465.861 764 -9465.861 C 758.672 -9465.861 758.672 -9473.861 764 -9473.861 Z" fill="black"/>
          </g>
          <g id="Graphic_195">
            <path d="M 689 -9450.858 C 694.328 -9450.858 694.328 -9442.858 689 -9442.858 C 683.672 -9442.858 683.672 -9450.858 689 -9450.858 Z" fill="black"/>
          </g>
          <g id="Graphic_194">
            <path d="M 614 -9442.515 C 619.328 -9442.515 619.328 -9434.515 614 -9434.515 C 608.672 -9434.515 608.672 -9442.515 614 -9442.515 Z" fill="black"/>
          </g>
          <g id="Graphic_193">
            <path d="M 538 -9445.536 C 543.328 -9445.536 543.328 -9437.536 538 -9437.536 C 532.672 -9437.536 532.672 -9445.536 538 -9445.536 Z" fill="black"/>
          </g>
          <g id="Graphic_192">
            <path d="M 463 -9421.468 C 468.328 -9421.468 468.328 -9413.468 463 -9413.468 C 457.672 -9413.468 457.672 -9421.468 463 -9421.468 Z" fill="black"/>
          </g>
          <g id="Graphic_191">
            <path d="M 388 -9415.529 C 393.328 -9415.529 393.328 -9407.529 388 -9407.529 C 382.672 -9407.529 382.672 -9415.529 388 -9415.529 Z" fill="black"/>
          </g>
          <g id="Graphic_190">
            <path d="M 313 -9406.465 C 318.328 -9406.465 318.328 -9398.465 313 -9398.465 C 307.672 -9398.465 307.672 -9406.465 313 -9406.465 Z" fill="black"/>
          </g>
          <g id="Graphic_189">
            <path d="M 237 -9388.955 C 242.328 -9388.955 242.328 -9380.955 237 -9380.955 C 231.672 -9380.955 231.672 -9388.955 237 -9388.955 Z" fill="black"/>
          </g>
          <g id="Graphic_188">
            <path d="M 162 -9379.994 C 167.328 -9379.994 167.328 -9371.994 162 -9371.994 C 156.672 -9371.994 156.672 -9379.994 162 -9379.994 Z" fill="black"/>
          </g>
        </g>
        <g id="Group_185">
          <g id="Graphic_186">
            <path d="M 162.63636 -9369.285 C 162.63636 -9369.285 207.8 -9371.76 237.9091 -9376.358 C 268.01818 -9380.956 283.07273 -9386.397 313.1818 -9392.275 C 343.2909 -9398.152 358.34545 -9404.415 388.45455 -9405.747 C 418.56364 -9407.079 433.6182 -9405.747 463.7273 -9407.079 C 493.83636 -9408.411 508.8909 -9429.668 539 -9437.265 C 569.1091 -9444.862 584.16364 -9445.065 614.2727 -9445.065 C 644.3818 -9445.065 659.4364 -9444.887 689.54545 -9444.887 C 719.65455 -9444.887 734.7091 -9460.153 764.8182 -9471.543 C 794.9273 -9482.934 809.9818 -9491.061 840.0909 -9501.839 C 870.2 -9512.617 915.3636 -9525.433 915.3636 -9525.433" stroke="#ba0f27" stroke-linecap="round" stroke-linejoin="round" stroke-width="2"/>
          </g>
        </g>
        <g id="Group_173">
          <g id="Graphic_184">
            <path d="M 915 -9529.433 L 919 -9525.433 L 915 -9521.433 L 911 -9525.433 Z" fill="#ba0f27"/>
          </g>
          <g id="Graphic_183">
            <path d="M 840 -9505.839 L 844 -9501.839 L 840 -9497.839 L 836 -9501.839 Z" fill="#ba0f27"/>
          </g>
          <g id="Graphic_182">
            <path d="M 764 -9475.543 L 768 -9471.543 L 764 -9467.543 L 760 -9471.543 Z" fill="#ba0f27"/>
          </g>
          <g id="Graphic_181">
            <path d="M 689 -9448.887 L 693 -9444.887 L 689 -9440.887 L 685 -9444.887 Z" fill="#ba0f27"/>
          </g>
          <g id="Graphic_180">
            <path d="M 614 -9449.065 L 618 -9445.065 L 614 -9441.065 L 610 -9445.065 Z" fill="#ba0f27"/>
          </g>
          <g id="Graphic_179">
            <path d="M 538 -9441.265 L 542 -9437.265 L 538 -9433.265 L 534 -9437.265 Z" fill="#ba0f27"/>
          </g>
          <g id="Graphic_178">
            <path d="M 463 -9411.079 L 467 -9407.079 L 463 -9403.079 L 459 -9407.079 Z" fill="#ba0f27"/>
          </g>
          <g id="Graphic_177">
            <path d="M 388 -9409.747 L 392 -9405.747 L 388 -9401.747 L 384 -9405.747 Z" fill="#ba0f27"/>
          </g>
          <g id="Graphic_176">
            <path d="M 313 -9396.275 L 317 -9392.275 L 313 -9388.275 L 309 -9392.275 Z" fill="#ba0f27"/>
          </g>
          <g id="Graphic_175">
            <path d="M 237 -9380.358 L 241 -9376.358 L 237 -9372.358 L 233 -9376.358 Z" fill="#ba0f27"/>
          </g>
          <g id="Graphic_174">
            <path d="M 162 -9373.285 L 166 -9369.285 L 162 -9365.285 L 158 -9369.285 Z" fill="#ba0f27"/>
          </g>
        </g>
      </g>
      <g id="Group_161">
        <g id="Group_162">
          <g id="Group_163">
            <g id="Group_168">
              <g id="Graphic_171">
                <line x1="382" y1="-9280" x2="398" y2="-9280" stroke="black" stroke-linecap="butt" stroke-linejoin="round" stroke-width="2"/>
              </g>
              <g id="Graphic_170">
                <path d="M 390 -9284 C 395.328 -9284 395.328 -9276 390 -9276 C 384.672 -9276 384.672 -9284 390 -9284 Z" fill="black"/>
              </g>
              <g id="Graphic_169">
                <title>Text</title>
                <text transform="translate(403 -9291.32)" fill="#333">
                  <tspan font-family="Helvetica" font-size="16" font-weight="400" fill="#333" x="0" y="15">Hanging suicides</tspan>
                </text>
              </g>
            </g>
            <g id="Group_164">
              <g id="Graphic_167">
                <line x1="542.03125" y1="-9280" x2="558.03125" y2="-9280" stroke="#ba0f27" stroke-linecap="butt" stroke-linejoin="round" stroke-width="2"/>
              </g>
              <g id="Graphic_166">
                <path d="M 550.03125 -9284 L 554.03125 -9280 L 550.03125 -9276 L 546.03125 -9280 Z" fill="#ba0f27"/>
              </g>
              <g id="Graphic_165">
                <title>Text</title>
                <text transform="translate(563.03125 -9291.32)" fill="#333">
                  <tspan font-family="Helvetica" font-size="16" font-weight="400" fill="#333" x="0" y="15">US spending on science</tspan>
                </text>
              </g>
            </g>
          </g>
        </g>
      </g>
      <g id="Group_149">
        <g id="Graphic_160">
          <title>Text</title>
          <text transform="translate(150.40101 -9318.47)" fill="black">
            <tspan font-family="Helvetica" font-size="11" font-weight="400" fill="black" x="0" y="10">1999</tspan>
          </text>
        </g>
        <g id="Graphic_159">
          <title>Text</title>
          <text transform="translate(225.67374 -9318.47)" fill="black">
            <tspan font-family="Helvetica" font-size="11" font-weight="400" fill="black" x="0" y="10">2000</tspan>
          </text>
        </g>
        <g id="Graphic_158">
          <title>Text</title>
          <text transform="translate(300.94647 -9318.47)" fill="black">
            <tspan font-family="Helvetica" font-size="11" font-weight="400" fill="black" x="0" y="10">2001</tspan>
          </text>
        </g>
        <g id="Graphic_157">
          <title>Text</title>
          <text transform="translate(376.2192 -9318.47)" fill="black">
            <tspan font-family="Helvetica" font-size="11" font-weight="400" fill="black" x="0" y="10">2002</tspan>
          </text>
        </g>
        <g id="Graphic_156">
          <title>Text</title>
          <text transform="translate(451.4919 -9318.47)" fill="black">
            <tspan font-family="Helvetica" font-size="11" font-weight="400" fill="black" x="0" y="10">2003</tspan>
          </text>
        </g>
        <g id="Graphic_155">
          <title>Text</title>
          <text transform="translate(526.76465 -9318.47)" fill="black">
            <tspan font-family="Helvetica" font-size="11" font-weight="400" fill="black" x="0" y="10">2004</tspan>
          </text>
        </g>
        <g id="Graphic_154">
          <title>Text</title>
          <text transform="translate(602.0374 -9318.47)" fill="black">
            <tspan font-family="Helvetica" font-size="11" font-weight="400" fill="black" x="0" y="10">2005</tspan>
          </text>
        </g>
        <g id="Graphic_153">
          <title>Text</title>
          <text transform="translate(677.3101 -9318.47)" fill="black">
            <tspan font-family="Helvetica" font-size="11" font-weight="400" fill="black" x="0" y="10">2006</tspan>
          </text>
        </g>
        <g id="Graphic_152">
          <title>Text</title>
          <text transform="translate(752.5828 -9318.47)" fill="black">
            <tspan font-family="Helvetica" font-size="11" font-weight="400" fill="black" x="0" y="10">2007</tspan>
          </text>
        </g>
        <g id="Graphic_151">
          <title>Text</title>
          <text transform="translate(827.8556 -9318.47)" fill="black">
            <tspan font-family="Helvetica" font-size="11" font-weight="400" fill="black" x="0" y="10">2008</tspan>
          </text>
        </g>
        <g id="Graphic_150">
          <title>Text</title>
          <text transform="translate(903.1283 -9318.47)" fill="black">
            <tspan font-family="Helvetica" font-size="11" font-weight="400" fill="black" x="0" y="10">2009</tspan>
          </text>
        </g>
      </g>
      <g id="Group_137">
        <g id="Graphic_148">
          <title>Text</title>
          <text transform="translate(150.40101 -9558.47)" fill="#ba0f27">
            <tspan font-family="Helvetica" font-size="11" font-weight="400" fill="#ba0f27" x="0" y="10">1999</tspan>
          </text>
        </g>
        <g id="Graphic_147">
          <title>Text</title>
          <text transform="translate(225.67374 -9558.47)" fill="#ba0f27">
            <tspan font-family="Helvetica" font-size="11" font-weight="400" fill="#ba0f27" x="0" y="10">2000</tspan>
          </text>
        </g>
        <g id="Graphic_146">
          <title>Text</title>
          <text transform="translate(300.94647 -9558.47)" fill="#ba0f27">
            <tspan font-family="Helvetica" font-size="11" font-weight="400" fill="#ba0f27" x="0" y="10">2001</tspan>
          </text>
        </g>
        <g id="Graphic_145">
          <title>Text</title>
          <text transform="translate(376.2192 -9558.47)" fill="#ba0f27">
            <tspan font-family="Helvetica" font-size="11" font-weight="400" fill="#ba0f27" x="0" y="10">2002</tspan>
          </text>
        </g>
        <g id="Graphic_144">
          <title>Text</title>
          <text transform="translate(451.4919 -9558.47)" fill="#ba0f27">
            <tspan font-family="Helvetica" font-size="11" font-weight="400" fill="#ba0f27" x="0" y="10">2003</tspan>
          </text>
        </g>
        <g id="Graphic_143">
          <title>Text</title>
          <text transform="translate(526.76465 -9558.47)" fill="#ba0f27">
            <tspan font-family="Helvetica" font-size="11" font-weight="400" fill="#ba0f27" x="0" y="10">2004</tspan>
          </text>
        </g>
        <g id="Graphic_142">
          <title>Text</title>
          <text transform="translate(602.0374 -9558.47)" fill="#ba0f27">
            <tspan font-family="Helvetica" font-size="11" font-weight="400" fill="#ba0f27" x="0" y="10">2005</tspan>
          </text>
        </g>
        <g id="Graphic_141">
          <title>Text</title>
          <text transform="translate(677.3101 -9558.47)" fill="#ba0f27">
            <tspan font-family="Helvetica" font-size="11" font-weight="400" fill="#ba0f27" x="0" y="10">2006</tspan>
          </text>
        </g>
        <g id="Graphic_140">
          <title>Text</title>
          <text transform="translate(752.5828 -9558.47)" fill="#ba0f27">
            <tspan font-family="Helvetica" font-size="11" font-weight="400" fill="#ba0f27" x="0" y="10">2007</tspan>
          </text>
        </g>
        <g id="Graphic_139">
          <title>Text</title>
          <text transform="translate(827.8556 -9558.47)" fill="#ba0f27">
            <tspan font-family="Helvetica" font-size="11" font-weight="400" fill="#ba0f27" x="0" y="10">2008</tspan>
          </text>
        </g>
        <g id="Graphic_138">
          <title>Text</title>
          <text transform="translate(903.1283 -9558.47)" fill="#ba0f27">
            <tspan font-family="Helvetica" font-size="11" font-weight="400" fill="#ba0f27" x="0" y="10">2009</tspan>
          </text>
        </g>
      </g>
      <g id="Group_132">
        <g id="Graphic_136">
          <title>Text</title>
          <text transform="translate(968 -9401.47)" fill="black">
            <tspan font-family="Helvetica" font-size="11" font-weight="400" fill="black" x="0" y="10">6000 suicides</tspan>
          </text>
        </g>
        <g id="Graphic_135">
          <title>Text</title>
          <text transform="translate(968 -9470.47)" fill="black">
            <tspan font-family="Helvetica" font-size="11" font-weight="400" fill="black" x="0" y="10">8000 suicides</tspan>
          </text>
        </g>
        <g id="Graphic_134">
          <title>Text</title>
          <text transform="translate(968 -9332.47)" fill="black">
            <tspan font-family="Helvetica" font-size="11" font-weight="400" fill="black" x="0" y="10">4000 suicides</tspan>
          </text>
        </g>
        <g id="Graphic_133">
          <title>Text</title>
          <text transform="translate(968 -9538.47)" fill="black">
            <tspan font-family="Helvetica" font-size="11" font-weight="400" fill="black" x="0" y="10">10000 suicides</tspan>
          </text>
        </g>
      </g>
      <g id="Group_127">
        <g id="Graphic_131">
          <title>Text</title>
          <text transform="translate(60.4624 -9332.47)" fill="#ba0f27">
            <tspan font-family="Helvetica" font-size="11" font-weight="400" fill="#ba0f27" x="0" y="10">$15 billion</tspan>
          </text>
        </g>
        <g id="Graphic_130">
          <title>Text</title>
          <text transform="translate(60.4624 -9401.47)" fill="#ba0f27">
            <tspan font-family="Helvetica" font-size="11" font-weight="400" fill="#ba0f27" x="0" y="10">$20 billion</tspan>
          </text>
        </g>
        <g id="Graphic_129">
          <title>Text</title>
          <text transform="translate(60.4624 -9470.47)" fill="#ba0f27">
            <tspan font-family="Helvetica" font-size="11" font-weight="400" fill="#ba0f27" x="0" y="10">$25 billion</tspan>
          </text>
        </g>
        <g id="Graphic_128">
          <title>Text</title>
          <text transform="translate(60.4624 -9538.47)" fill="#ba0f27">
            <tspan font-family="Helvetica" font-size="11" font-weight="400" fill="#ba0f27" x="0" y="10">$30 billion</tspan>
          </text>
        </g>
      </g>
      <g id="Graphic_126">
        <title>Text</title>
        <text transform="translate(999.979 -9267.93)" fill="#909090">
          <tspan font-family="Helvetica" font-size="9" font-weight="400" fill="#909090" x="0" y="9">tylervigen.com</tspan>
        </text>
      </g>
    </g>
  </g>
</svg>
